<?xml version="1.0" encoding="UTF-8"?>
<svg xmlns="http://www.w3.org/2000/svg" width="81" height="42" viewBox="0 0 81 42" fill="none">
  <g clip-path="url(#clip0_1_24976)">
    <path d="M77.6594 0.727051H4.165C2.32001 0.727051 0.824341 2.22272 0.824341 4.06771V37.4743C0.824341 39.3193 2.32001 40.8149 4.165 40.8149H77.6594C79.5044 40.8149 81.0001 39.3193 81.0001 37.4743V4.06771C81.0001 2.22272 79.5044 0.727051 77.6594 0.727051Z" fill="#F5F6F7"></path>
    <path fill-rule="evenodd" clip-rule="evenodd" d="M26.4265 11.4236C26.5384 12.4225 26.1288 13.4253 25.5195 14.1462C24.9101 14.8671 23.9108 15.4275 22.9332 15.3529C22.7996 14.3745 23.2933 13.3543 23.8575 12.7155C24.4871 11.9952 25.5494 11.459 26.4265 11.4236ZM29.5891 17.2414C29.4292 17.3371 27.6934 18.3747 27.7139 20.4817C27.737 23.0025 29.9265 23.8801 30.0495 23.9294L30.0546 23.9315C30.0535 23.935 30.0513 23.9418 30.0479 23.9521C29.9929 24.124 29.6405 25.2233 28.8467 26.3568C28.1198 27.3949 27.3673 28.4299 26.1785 28.4511C25.6079 28.4614 25.2265 28.3002 24.8297 28.1324C24.4146 27.9569 23.9828 27.7744 23.3004 27.7744C22.5857 27.7744 22.134 27.9625 21.699 28.1436C21.3217 28.3007 20.9569 28.4526 20.4439 28.4722C19.2971 28.514 18.4243 27.3495 17.6916 26.3145C16.1937 24.1984 15.0494 20.3331 16.5861 17.7231C17.3494 16.4274 18.7131 15.607 20.1938 15.5865C20.8321 15.5748 21.4502 15.8144 21.9914 16.0242C22.4048 16.1844 22.7733 16.3273 23.0715 16.3273C23.3387 16.3273 23.6972 16.189 24.1153 16.0277C24.7735 15.7738 25.5791 15.463 26.4094 15.5448C26.9775 15.5697 28.5734 15.7706 29.598 17.236C29.598 17.236 29.5929 17.2391 29.5891 17.2414Z" fill="#192A36"></path>
    <path d="M36.5021 26.6353H38.2914V21.5162H41.9095C44.6033 21.5162 46.5117 19.6178 46.5117 16.8942V16.8743C46.5117 14.1508 44.6033 12.292 41.9095 12.292H36.5021V26.6353ZM41.4522 13.8824C43.4999 13.8824 44.6828 15.0056 44.6828 16.8942V16.9141C44.6828 18.8027 43.4999 19.9259 41.4522 19.9259H38.2914V13.8824H41.4522ZM50.7182 26.8243C52.1596 26.8243 53.2828 26.198 53.9587 25.055H54.1176V26.6353H55.8472V19.2996C55.8472 17.0731 54.3861 15.7312 51.7719 15.7312C49.4857 15.7312 47.8555 16.8644 47.5773 18.5442L47.5673 18.604H49.2967L49.3067 18.5741C49.5851 17.7391 50.4299 17.262 51.7122 17.262C53.3125 17.262 54.1176 17.9777 54.1176 19.2996V20.2738L51.0463 20.4627C48.5512 20.6118 47.1397 21.7152 47.1397 23.6236V23.6435C47.1397 25.5916 48.6806 26.8243 50.7182 26.8243ZM48.9092 23.6037V23.5837C48.9092 22.5203 49.6248 21.9438 51.255 21.8443L54.1176 21.6653V22.6395C54.1176 24.1704 52.8355 25.3233 51.076 25.3233C49.8335 25.3233 48.9092 24.6872 48.9092 23.6037ZM58.4732 30.3928C60.3719 30.3928 61.2565 29.6969 62.1411 27.2915L66.326 15.9201H64.5068L61.5746 24.7369H61.4156L58.4732 15.9201H56.6244L60.5905 26.6453L60.3918 27.2816C60.0041 28.5141 59.4077 28.9614 58.4236 28.9614C58.185 28.9614 57.9167 28.9514 57.708 28.9117V30.3332C57.9464 30.3728 58.2446 30.3928 58.4732 30.3928Z" fill="#192A36"></path>
  </g>
  <defs>
    <clipPath id="clip0_1_24976">
      <rect width="80.4065" height="41.9512" fill="white" transform="translate(0.593506)"></rect>
    </clipPath>
  </defs>
</svg>
