<?xml version="1.0" encoding="UTF-8"?>
<svg xmlns="http://www.w3.org/2000/svg" width="84" height="42" viewBox="0 0 84 42" fill="none">
  <path d="M79.4678 0.727051H5.97335C4.12836 0.727051 2.63269 2.22272 2.63269 4.06771V37.4743C2.63269 39.3193 4.12836 40.8149 5.97335 40.8149H79.4678C81.3128 40.8149 82.8085 39.3193 82.8085 37.4743V4.06771C82.8085 2.22272 81.3128 0.727051 79.4678 0.727051Z" fill="#F5F6F7"></path>
  <mask id="mask0_1_24965" style="mask-type:luminance" maskUnits="userSpaceOnUse" x="15" y="12" width="55" height="21">
    <path d="M69.4448 12.4192H15.9943V32.4631H69.4448V12.4192Z" fill="white"></path>
  </mask>
  <g mask="url(#mask0_1_24965)">
    <path d="M33.2978 20.9448C33.2986 20.3765 33.2478 19.8091 33.1457 19.2493H24.8214V22.4589H29.5881C29.4905 22.9712 29.2841 23.4596 28.9812 23.8945C28.6784 24.3294 28.2853 24.7019 27.8259 24.9894V27.0784H30.6714C32.3374 25.6278 33.2978 23.482 33.2978 20.9448Z" fill="#4285F4"></path>
    <path d="M24.821 29.0914C27.2009 29.0914 29.2095 28.3522 30.6711 27.0785L27.8256 24.9937C27.0331 25.5032 26.0146 25.7911 24.821 25.7911C22.5195 25.7911 20.5647 24.3258 19.8661 22.3511H16.9354V24.499C17.6698 25.8795 18.7962 27.0402 20.1886 27.8511C21.5812 28.6621 23.185 29.0916 24.821 29.0914Z" fill="#34A853"></path>
    <path d="M19.866 22.3507C19.4966 21.3159 19.4966 20.1953 19.866 19.1604V17.012H16.9353C16.3166 18.1738 15.9943 19.4561 15.9943 20.7566C15.9943 22.0571 16.3166 23.3396 16.9353 24.5013L19.866 22.3507Z" fill="#FBBC04"></path>
    <path d="M41.2739 22.2129V28.0863H39.2993V13.5767H44.5327C45.1576 13.564 45.7788 13.6685 46.3607 13.8841C46.9426 14.0996 47.4735 14.422 47.9225 14.8326C48.3689 15.2253 48.725 15.7006 48.9685 16.2289C49.212 16.7573 49.3377 17.3273 49.3377 17.9035C49.3377 18.4796 49.212 19.0496 48.9685 19.578C48.725 20.1063 48.3689 20.5817 47.9225 20.9743C47.0067 21.799 45.8767 22.2106 44.5327 22.2094H41.2729L41.2739 22.2129ZM41.2739 15.365V20.4307H44.5834C45.1085 20.4398 45.6248 20.3027 46.0679 20.0365C46.511 19.7703 46.8613 19.3868 47.0749 18.9337C47.2887 18.4807 47.3563 17.9783 47.2696 17.489C47.1829 16.9999 46.9456 16.5458 46.5871 16.1832C46.5694 16.1659 46.5537 16.1491 46.5332 16.1323C46.2841 15.8807 45.9814 15.682 45.6447 15.5494C45.3082 15.4167 44.9457 15.3532 44.5813 15.3629L41.2739 15.365ZM53.8885 17.8365C55.348 17.8365 56.4991 18.2043 57.3414 18.94C58.1838 19.6757 58.6056 20.685 58.6066 21.9678V28.0863H56.7183V26.7106H56.6335C55.816 27.8457 54.7286 28.413 53.3711 28.4123C52.2136 28.4123 51.245 28.088 50.4653 27.4397C50.0912 27.1418 49.7923 26.7692 49.5901 26.3486C49.3878 25.928 49.2873 25.4703 49.2961 25.0084C49.2961 23.9806 49.7074 23.1638 50.5299 22.5578C51.3525 21.9519 52.4496 21.6481 53.821 21.6469C54.9923 21.6469 55.9597 21.8507 56.7162 22.2536V21.8268C56.7185 21.512 56.6466 21.2007 56.5056 20.9154C56.3647 20.6301 56.1584 20.3781 55.9015 20.1776C55.3793 19.7329 54.6988 19.4905 53.9958 19.4988C52.8941 19.4988 52.0217 19.9379 51.3786 20.8159L49.6441 19.7796C50.5976 18.4834 52.0134 17.8358 53.8885 17.8365ZM51.3338 25.0481C51.3328 25.285 51.3915 25.5187 51.5051 25.73C51.6188 25.9412 51.7841 26.1238 51.9872 26.2628C52.4239 26.5869 52.9657 26.7587 53.5211 26.7492C54.3535 26.7471 55.1514 26.4343 55.7406 25.8791C56.3946 25.2976 56.7214 24.6155 56.7209 23.8326C56.1053 23.3695 55.247 23.1378 54.1463 23.1371C53.3447 23.1371 52.6759 23.3196 52.1405 23.6844C51.6009 24.0567 51.3312 24.5071 51.3312 25.0481H51.3338ZM69.4445 18.162L62.8554 32.4632H60.8181L63.2627 27.4586L58.9282 18.162H61.0733L64.2025 25.2948H64.2452L67.2924 18.162H69.4445Z" fill="#5F6368"></path>
    <path d="M24.821 15.7199C26.0794 15.7004 27.2951 16.1491 28.206 16.9691L30.7273 14.5909C29.1293 13.1741 27.0128 12.396 24.821 12.4195C23.1851 12.4198 21.5815 12.8493 20.1891 13.6601C18.7967 14.471 17.6702 15.6312 16.9354 17.0114L19.8661 19.1599C20.5647 17.1851 22.5195 15.7199 24.821 15.7199Z" fill="#EA4335"></path>
  </g>
</svg>
