<?xml version="1.0" encoding="UTF-8"?>
<svg xmlns="http://www.w3.org/2000/svg" width="25" height="23" viewBox="0 0 25 23" fill="none">
  <path fill-rule="evenodd" clip-rule="evenodd" d="M0.780554 0.083431C0.510699 0.180038 0.193747 0.475312 0.0842329 0.732022C-0.0986108 1.16065 0.0267904 1.77812 0.358103 2.08055C0.704398 2.39666 0.779424 2.41001 2.3821 2.44136L3.87765 2.47055L5.78688 10.1946C6.8369 14.4428 7.71002 17.9761 7.72709 18.0464L7.75807 18.1742H15.7865H23.815L23.7997 16.9673L23.7844 15.7604L16.7052 15.746L9.62592 15.7316L9.5704 15.5188C9.33164 14.6037 9.23677 14.1658 9.2708 14.1361C9.2928 14.117 12.8408 13.4268 17.1553 12.6023L24.9998 11.1033L24.9999 6.77272L25 2.44216H15.6734H6.34683L6.26869 2.17238C6.22567 2.02404 6.07946 1.47455 5.94377 0.951305L5.69709 0L3.34834 0.00249888C1.4987 0.00442988 0.953108 0.0216387 0.780554 0.083431ZM22.5689 6.9857C22.5689 8.1727 22.5498 9.14372 22.5265 9.14349C22.5031 9.14326 19.3836 9.7333 15.5942 10.4547C11.8048 11.1761 8.68552 11.745 8.66251 11.7188C8.62785 11.6794 6.90786 4.95423 6.90786 4.85824C6.90786 4.84132 10.4316 4.82752 14.7384 4.82752H22.5689V6.9857ZM7.83287 19.4292C6.53403 19.596 5.88503 21.193 6.67667 22.2744C7.32431 23.159 8.59127 23.249 9.37093 22.4658C9.76472 22.0703 9.92523 21.6476 9.88995 21.0991C9.82035 20.0167 8.92405 19.2891 7.83287 19.4292ZM22.3066 19.4292C21.0077 19.596 20.3587 21.193 21.1504 22.2744C21.798 23.159 23.065 23.249 23.8446 22.4658C24.2384 22.0703 24.3989 21.6476 24.3637 21.0991C24.2941 20.0167 23.3978 19.2891 22.3066 19.4292Z" fill="#493F33"></path>
</svg>
