<?xml version="1.0" encoding="UTF-8"?>
<svg xmlns="http://www.w3.org/2000/svg" width="24" height="23" viewBox="0 0 24 23" fill="none">
  <path fill-rule="evenodd" clip-rule="evenodd" d="M10.9364 0.0253929C8.25321 0.30465 5.94463 1.82993 4.61807 4.19986C4.17989 4.98273 3.81683 6.09463 3.7031 7.00216C3.62232 7.64663 3.66931 9.0031 3.79305 9.59769C4.11324 11.1365 4.90443 12.6095 5.99278 13.6929L6.28919 13.988L5.84258 14.2074C4.7831 14.7278 4.02023 15.259 3.22441 16.0303C1.39891 17.7995 0.437041 19.9164 0.251479 22.5732L0.22168 23H1.51908H2.81654L2.8449 22.6886C2.93383 21.7129 3.07639 21.0704 3.36391 20.3496C4.01235 18.7236 5.28538 17.3596 6.87902 16.5835C7.56408 16.2498 8.15455 16.0558 8.84165 15.9387C9.48662 15.8287 9.77071 15.8266 10.3085 15.9278C10.8941 16.0379 12.5035 16.0379 13.0891 15.9278C13.6009 15.8315 13.9374 15.829 14.4795 15.9174C15.8731 16.1448 17.0823 16.7165 18.1681 17.6615C19.4889 18.8111 20.425 20.6196 20.5517 22.267C20.5662 22.4544 20.5887 22.6961 20.6018 22.8039L20.6258 23H21.9237H23.2217L23.193 22.6194C23.1405 21.9219 23.0706 21.4132 22.9562 20.8959C22.3236 18.0353 20.3748 15.5728 17.7123 14.2697L17.1448 13.9919L17.5274 13.5918C19.5161 11.5114 20.2411 8.66672 19.4859 5.90705C18.6704 2.92735 16.1389 0.635902 13.089 0.116879C12.4634 0.0103989 11.4814 -0.0313535 10.9364 0.0253929ZM12.2613 2.61123C13.4818 2.74669 14.5131 3.2163 15.3958 4.03838C16.3255 4.90425 16.9252 6.02239 17.1 7.21604C17.1856 7.80053 17.1348 8.79812 16.9915 9.3463C16.1056 12.7337 12.3784 14.4255 9.24257 12.8635C8.01069 12.2499 7.04437 11.1744 6.57226 9.89152C6.13042 8.6909 6.14354 7.2112 6.60624 6.05643C6.92986 5.24874 7.309 4.69636 7.96922 4.07068C8.83641 3.24878 9.90274 2.74835 11.0732 2.61395C11.5737 2.55647 11.764 2.55601 12.2613 2.61123Z" fill="#493F33"></path>
</svg>
