<?xml version="1.0" encoding="UTF-8"?>
<svg xmlns="http://www.w3.org/2000/svg" width="41" height="27" viewBox="0 0 41 27" fill="none">
  <path fill-rule="evenodd" clip-rule="evenodd" d="M5.94303 0.22858C4.96961 0.6683 2.99178 3.19587 1.8746 5.42807C1.13917 6.89763 0.516891 8.78002 0.227849 10.4095C-0.0749089 12.1158 -0.0760523 14.9198 0.225054 16.5974C0.838443 20.014 2.58704 23.5189 4.84947 25.8667C5.7886 26.8414 6.3879 27.1159 7.23191 26.9584C7.85457 26.8424 8.60892 26.1024 8.79142 25.4286C8.99626 24.6718 8.78278 24.1297 7.84936 23.0376C5.62389 20.4335 4.52271 17.9462 4.20116 14.7973C3.80836 10.9508 5.05851 7.19844 7.78066 4.05321C8.69426 2.99761 8.82748 2.74807 8.82659 2.09493C8.82558 1.41552 8.6634 1.01849 8.21574 0.59897C7.53174 -0.04192 6.80444 -0.1605 5.94303 0.22858ZM33.6338 0.0817127C33.2376 0.177436 32.5735 0.724371 32.3637 1.12785C32.1374 1.56302 32.1138 2.54791 32.3204 2.93547C32.4013 3.08714 32.7778 3.55224 33.1572 3.96898C34.7129 5.67798 35.8318 7.74601 36.4594 10.0723C36.7509 11.1525 36.7898 11.5413 36.7961 13.4403C36.8021 15.2593 36.7599 15.7576 36.5199 16.7034C35.9432 18.9753 34.9689 20.8903 33.5327 22.5741C32.2466 24.0822 32.1733 24.2071 32.1733 24.894C32.1733 25.6388 32.4127 26.1395 32.9669 26.5535C33.4734 26.9318 34.0295 27.0591 34.6708 26.9434C35.6799 26.7614 37.9765 23.9693 39.2199 21.4128C39.8896 20.0359 40.3358 18.7063 40.7062 16.9844C41.1021 15.1437 41.0972 11.8421 40.6956 9.96746C39.9693 6.57674 38.4864 3.65214 36.2844 1.26815C35.2059 0.100277 34.6278 -0.158479 33.6338 0.0817127ZM11.9528 5.82485C11.6238 5.91186 11.2572 6.18918 10.7464 6.7375C8.0123 9.67247 7.33147 14.1001 9.05201 17.7564C9.84091 19.4327 11.1224 20.9201 12.0237 21.2055C12.7295 21.429 13.5061 21.1864 14.0695 20.5663C14.8863 19.6673 14.8022 18.6716 13.8122 17.5196C11.753 15.1235 11.753 11.8833 13.8122 9.48721C14.803 8.33436 14.8864 7.33962 14.0678 6.43859C13.7694 6.11012 13.449 5.9106 13.0662 5.81475C12.7567 5.73721 12.486 5.67975 12.4645 5.68682C12.443 5.69402 12.2128 5.75615 11.9528 5.82485ZM27.792 5.86374C26.3851 6.35777 25.9655 8.0386 26.9608 9.19322C29.2566 11.8567 29.333 15.0234 27.1623 17.5521C26.8424 17.9246 26.5225 18.4446 26.4513 18.7078C26.0557 20.1688 27.5269 21.6007 29.0144 21.2024C30.0538 20.9241 31.63 18.8452 32.3275 16.833C33.5114 13.4178 32.8476 9.81895 30.5068 6.96115C29.6073 5.86299 28.7644 5.52227 27.792 5.86374ZM19.3468 9.57308C18.2545 9.92983 17.3254 10.7153 16.789 11.7354C16.5361 12.2162 16.4901 12.4886 16.4904 13.5034C16.4905 14.5594 16.531 14.7788 16.8282 15.3345C17.2329 16.0912 17.9331 16.7785 18.7118 17.1834C19.1951 17.4348 19.4695 17.4806 20.4897 17.4806C21.51 17.4806 21.7843 17.4348 22.2677 17.1834C23.0464 16.7785 23.7465 16.0912 24.1513 15.3345C24.4484 14.7788 24.489 14.5594 24.4891 13.5034C24.4895 12.1441 24.2718 11.5651 23.4289 10.6827C22.6805 9.89914 21.8684 9.55199 20.6802 9.50741C20.1215 9.48657 19.5214 9.51613 19.3468 9.57308Z" fill="#968372"></path>
</svg>
