<?xml version="1.0" encoding="UTF-8"?>
<svg xmlns="http://www.w3.org/2000/svg" width="43" height="43" viewBox="0 0 43 43" fill="none">
  <path fill-rule="evenodd" clip-rule="evenodd" d="M9.47892 0.0898174C8.28105 0.325408 6.98825 1.27046 6.40904 2.33389C5.95797 3.16217 5.80898 4.09819 5.80683 6.11763L5.805 7.90954L3.46688 7.94392C0.834307 7.98259 0.65188 8.03018 0.225105 8.78895C0.0061277 9.17827 0 9.31782 0 13.8869C0 18.4559 0.0061277 18.5955 0.225105 18.9848C0.55943 19.5792 0.97352 19.7749 2.01175 19.8294L2.89949 19.8759L2.92787 30.9199C2.95625 41.9572 2.95636 41.964 3.18254 42.267C3.30692 42.4338 3.57298 42.667 3.77379 42.7851C4.13467 42.9976 4.33204 43 21.5538 43C38.5049 43 38.9778 42.9945 39.308 42.7948C39.4945 42.682 39.7486 42.4095 39.8724 42.1893C40.0967 41.7902 40.0975 41.7546 40.0975 30.8191V19.8491H40.881C41.8509 19.8491 42.5082 19.556 42.8039 18.9914C42.9851 18.6456 43 18.2565 43 13.8869C43 9.47811 42.9863 9.13122 42.7997 8.78229C42.4056 8.04576 42.1594 7.98249 39.5331 7.94392L37.195 7.90954V6.04233C37.195 5.01542 37.1406 3.919 37.0741 3.60585C36.4669 0.748355 33.2873 -0.826118 30.7026 0.450885C30.4008 0.599996 28.4606 2.05587 26.3913 3.6862C24.3219 5.31643 22.376 6.84525 22.0671 7.08352L21.5054 7.51678L17.2296 4.14879C14.8779 2.29629 12.6877 0.647801 12.3625 0.485477C11.4324 0.021063 10.4877 -0.108603 9.47892 0.0898174ZM11.0376 3.40646C11.3473 3.59521 16.2858 7.43772 16.6586 7.78009C16.7907 7.90138 16.1911 7.92458 12.923 7.92458H9.03V6.06048C9.03 4.2979 9.04333 4.17651 9.2751 3.83284C9.71091 3.18655 10.4022 3.01939 11.0376 3.40646ZM33.5527 3.61476L33.97 4.03191V5.97819V7.92458H30.082C27.9438 7.92458 26.2143 7.9061 26.2389 7.88344C26.4465 7.69264 31.635 3.63646 31.9157 3.44556C32.1454 3.28925 32.438 3.19773 32.7076 3.19773C33.0611 3.19773 33.2077 3.27013 33.5527 3.61476ZM39.8825 13.8869V16.6263H21.5538H3.225V13.8869V11.1474H21.5538H39.8825V13.8869ZM36.9537 29.8131L36.9263 39.7771L21.5269 39.8043L6.1275 39.8316V29.8403V19.8491H21.5543H36.9811L36.9537 29.8131Z" fill="black"></path>
</svg>
