<?xml version="1.0" encoding="UTF-8"?>
<svg xmlns="http://www.w3.org/2000/svg" width="47" height="47" viewBox="0 0 47 47" fill="none">
  <path fill-rule="evenodd" clip-rule="evenodd" d="M20.9481 0.0628065C15.6669 0.696263 10.8988 2.9545 7.08728 6.62737C3.3194 10.2581 0.745598 15.4675 0.133441 20.7017C-0.0444804 22.2232 -0.0444804 24.7767 0.133441 26.2982C1.05457 34.1742 6.01671 41.1513 13.1824 44.6457C15.4121 45.733 17.3014 46.3401 19.8082 46.7749C21.4193 47.0543 25.3764 47.0787 26.9949 46.8193C31.9201 46.0298 36.3465 43.8356 39.9147 40.4151C42.9832 37.4735 45.3692 33.3093 46.4045 29.0887C46.906 27.0442 47 26.1613 47 23.5C47 21.5967 46.9638 20.8368 46.8342 20.0255C46.4407 17.5617 45.7512 15.3793 44.6646 13.1584C42.3518 8.43121 38.663 4.72654 33.9522 2.40009C31.7017 1.28863 29.5201 0.589538 27.0595 0.191134C25.9834 0.0169359 22.0239 -0.0662564 20.9481 0.0628065ZM26.2236 4.62036C33.762 5.65379 40.076 11.3108 41.9872 18.7437C42.779 21.8232 42.779 25.1767 41.9872 28.2562C40.2625 34.9639 34.9824 40.2454 28.2764 41.9706C25.1584 42.7726 21.6479 42.7546 18.5586 41.9206C15.361 41.0573 12.4677 39.3808 10.0958 37.0172C8.47839 35.4054 7.38347 33.8766 6.37311 31.8192C2.18119 23.2836 5.04963 12.8455 13.0352 7.5764C16.9137 5.0173 21.5458 3.97909 26.2236 4.62036ZM20.2588 11.9149C19.3874 12.1468 18.989 12.3243 18.2687 12.8016C17.1113 13.5684 16.2168 14.7376 15.7443 16.1009C15.5278 16.7258 15.4891 16.9872 15.4849 17.8531C15.4801 18.8293 15.4912 18.8891 15.758 19.3214C15.9309 19.6014 16.2066 19.8775 16.4861 20.0504C16.8843 20.2965 17.0168 20.3285 17.6396 20.3285C18.2624 20.3285 18.395 20.2965 18.7932 20.0504C19.3959 19.6775 19.7383 19.1106 19.8521 18.2964C19.9008 17.9479 19.9833 17.5316 20.0355 17.3713C20.1498 17.0201 20.8371 16.364 21.1954 16.264C21.3374 16.2243 22.7149 16.1919 24.2565 16.1919C27.3578 16.1919 27.3351 16.188 28.0093 16.8227C28.4489 17.2364 28.6056 17.59 28.6056 18.1683C28.6056 18.73 28.4484 19.102 28.0557 19.4699C27.9122 19.6043 26.5334 20.4858 24.9917 21.429C23.4501 22.3721 22.078 23.2495 21.9427 23.3786C21.8074 23.5078 21.6079 23.8198 21.4995 24.0718C21.3228 24.4827 21.3055 24.6651 21.332 25.8383C21.3608 27.1102 21.3693 27.1588 21.6397 27.5959C21.8119 27.874 22.0894 28.1515 22.3678 28.3236C22.766 28.5698 22.8985 28.6018 23.5213 28.6018C24.1441 28.6018 24.2767 28.5698 24.6749 28.3236C25.2276 27.9818 25.6315 27.361 25.7133 26.7276L25.7729 26.2655L27.8153 24.9976C28.9387 24.3003 30.1141 23.5436 30.4272 23.3161C31.5503 22.5003 32.5245 21.006 32.8545 19.5931C33.0843 18.6091 33.0042 16.8682 32.6881 15.9773C32.342 15.0021 31.9306 14.3591 31.1492 13.5718C30.3463 12.7628 29.3595 12.2001 28.243 11.9144C27.6014 11.7504 27.2273 11.734 24.2189 11.7386C21.2856 11.7431 20.8278 11.7634 20.2588 11.9149ZM22.4645 31.0106C21.8046 31.2348 20.9483 32.108 20.7372 32.772C20.2293 34.3696 20.9476 36.0094 22.3944 36.5553C22.8243 36.7174 23.0623 36.7476 23.6592 36.716C24.7861 36.6562 25.5973 36.1475 26.1462 35.1564C26.3919 34.7128 26.4162 34.5902 26.4159 33.7956C26.4158 33.0618 26.382 32.8592 26.2052 32.5275C25.8965 31.9484 25.4337 31.4752 24.8829 31.1753C24.2638 30.8382 23.1875 30.765 22.4645 31.0106Z" fill="#968372"></path>
</svg>
