<?xml version="1.0" encoding="UTF-8"?>
<svg xmlns="http://www.w3.org/2000/svg" width="83" height="42" viewBox="0 0 83 42" fill="none">
  <g clip-path="url(#clip0_1_24956)">
    <path d="M77.539 0.727051H4.04452C2.19952 0.727051 0.703857 2.22272 0.703857 4.06771V37.4743C0.703857 39.3193 2.19952 40.8149 4.04452 40.8149H77.539C79.384 40.8149 80.8796 39.3193 80.8796 37.4743V4.06771C80.8796 2.22272 79.384 0.727051 77.539 0.727051Z" fill="#F5F6F7"></path>
    <path fill-rule="evenodd" clip-rule="evenodd" d="M50.4908 35.8039C58.9719 35.8039 65.847 29.0734 65.847 20.7711C65.847 12.4685 58.9719 5.73804 50.4908 5.73804C42.0098 5.73804 35.1347 12.4685 35.1347 20.7711C35.1347 29.0734 42.0098 35.8039 50.4908 35.8039Z" fill="#F79E1B"></path>
    <path fill-rule="evenodd" clip-rule="evenodd" d="M31.093 35.8039C39.574 35.8039 46.4493 29.0734 46.4493 20.7711C46.4493 12.4685 39.574 5.73804 31.093 5.73804C22.6119 5.73804 15.7368 12.4685 15.7368 20.7711C15.7368 29.0734 22.6119 35.8039 31.093 35.8039Z" fill="#EB001B"></path>
    <path fill-rule="evenodd" clip-rule="evenodd" d="M40.7929 9.11523C37.3403 11.8718 35.1356 16.0693 35.1356 20.7708C35.1356 25.4723 37.3403 29.6699 40.7929 32.4264C44.2454 29.6699 46.4502 25.4723 46.4502 20.7708C46.4502 16.0693 44.2454 11.8718 40.7929 9.11523Z" fill="#FF5F00"></path>
  </g>
  <defs>
    <clipPath id="clip0_1_24956">
      <rect width="82.1545" height="41.9512" fill="white" transform="translate(0.374023)"></rect>
    </clipPath>
  </defs>
</svg>
