<?xml version="1.0" encoding="UTF-8"?>
<svg xmlns="http://www.w3.org/2000/svg" width="81" height="42" viewBox="0 0 81 42" fill="none">
  <g clip-path="url(#clip0_1_24961)">
    <path d="M76.8351 0.727051H3.34066C1.49567 0.727051 0 2.22272 0 4.06771V37.4743C0 39.3193 1.49567 40.8149 3.34066 40.8149H76.8351C78.6801 40.8149 80.1758 39.3193 80.1758 37.4743V4.06771C80.1758 2.22272 78.6801 0.727051 76.8351 0.727051Z" fill="#F5F6F7"></path>
    <path fill-rule="evenodd" clip-rule="evenodd" d="M53.7309 13.1672C52.7667 12.8065 51.2557 12.4189 49.3679 12.4189C44.5577 12.4189 41.1682 14.8338 41.1399 18.2924C41.1135 20.8518 43.5587 22.2767 45.406 23.1299C47.3003 24.0007 47.9381 24.5576 47.9281 25.3364C47.9159 26.5297 46.4156 27.0745 45.0164 27.0745C43.0674 27.0745 42.0329 26.806 40.4337 26.1415L39.8059 25.8579L39.1226 29.843C40.261 30.339 42.3621 30.7706 44.5456 30.7925C49.6637 30.7925 52.9864 28.406 53.0233 24.7115C53.0411 22.6863 51.7448 21.1451 48.9371 19.8761C47.234 19.0521 46.1924 18.5015 46.2038 17.6682C46.2038 16.9298 47.0847 16.1369 48.9904 16.1369C50.5845 16.1121 51.7364 16.4586 52.6344 16.82L53.0717 17.024L53.7309 13.1672ZM31.208 30.5289L34.2519 12.7299H39.1196L36.0741 30.5289H31.208ZM62.4523 12.7471H66.2145L70.1544 30.5332H65.6364C65.6364 30.5332 65.1905 28.4897 65.0448 27.8669C64.6682 27.8669 63.0958 27.8648 61.6179 27.863H61.6081C60.3016 27.8613 59.0714 27.8597 58.8098 27.8597C58.6206 28.3409 57.7853 30.5332 57.7853 30.5332H52.6721L59.9019 14.2231C60.4153 13.0631 61.2863 12.7471 62.4523 12.7471ZM60.2123 24.2191C60.6156 23.1937 62.1527 19.2426 62.1527 19.2426C62.1386 19.2658 62.233 19.0211 62.3621 18.6871C62.4978 18.3363 62.6717 17.8858 62.7977 17.5443L63.1262 19.079C63.1262 19.079 64.0591 23.3269 64.2545 24.2191H60.2123ZM22.3583 24.8801L27.1238 12.7427H32.2802L24.6167 30.507L19.4653 30.514L15.108 14.9464C18.1982 16.4883 20.9633 19.5693 21.85 22.4136L22.3583 24.8801Z" fill="#1A1F71"></path>
    <path fill-rule="evenodd" clip-rule="evenodd" d="M17.9362 12.7312H10.0849L10.0231 13.1011C16.1309 14.5756 20.1724 18.1357 21.8498 22.414L20.1425 14.2334C19.8482 13.106 18.9927 12.7702 17.9362 12.7312Z" fill="#F9A51A"></path>
  </g>
  <defs>
    <clipPath id="clip0_1_24961">
      <rect width="80.4065" height="41.9512" fill="white"></rect>
    </clipPath>
  </defs>
</svg>
